<!--?xml version="1.0" standalone="no"?-->
<svg version="1.0" xmlns="http://www.w3.org/2000/svg" width="300.000000pt" height="300.000000pt" viewBox="0 0 300.000000 300.000000" preserveAspectRatio="xMidYMid meet">
<g transform="translate(0.000000,300.000000) scale(0.100000,-0.100000)" fill="#010101" stroke="none">
<path class="node" id="node1" d="M1455 2876 c-124 -24 -243 -89 -333 -182 -128 -133 -162 -247 -162 -544 0 -179 7 -217 49 -277 17 -24 31 -50 31 -58 0 -7 11 -26 24 -42 34 -41 53 -82 61 -133 4 -25 16 -65 28 -90 22 -49 33 -125 24 -162 -4 -15 -23 -31 -54 -45 -26 -12 -68 -42 -93 -67 -101 -100 -245 -153 -640 -237 -101 -21 -179 -50 -193 -73 -21 -32 -43 -105 -88 -296 -78 -329 -108 -491 -109 -582 l0 -88 1500 0 1500 0 0 158 c0 201 -27 375 -72 466 -11 21 -26 69 -34 106 -8 38 -18 79 -23 92 -21 55 -152 145 -251 173 -23 6 -198 72 -265 100 -16 7 -48 18 -70 25 -75 24 -110 48 -178 124 -38 42 -74 76 -82 76 -7 0 -26 15 -43 34 -49 56 -52 167 -7 273 9 21 25 65 36 99 10 34 37 88 59 120 22 32 40 64 40 69 0 6 6 22 14 37 17 33 36 118 36 164 0 19 -8 49 -17 67 -13 25 -18 73 -23 213 -7 173 -8 184 -33 225 -61 100 -138 153 -257 179 -52 10 -71 19 -149 63 -42 24 -140 29 -226 13z"/>
</g>
<g transform="translate(0.000000,300.000000) scale(0.100000,-0.100000)" fill="#FFFFFF" stroke="none">

</g>
</svg>